<svg width="38" height="33" viewBox="0 0 38 33" fill="none" xmlns="http://www.w3.org/2000/svg">
<path d="M36.5376 5.84623H11.6915C11.3039 5.84623 10.9321 5.69224 10.6581 5.41815C10.384 5.14406 10.23 4.77232 10.23 4.38469C10.23 3.99707 10.384 3.62532 10.6581 3.35123C10.9321 3.07714 11.3039 2.92316 11.6915 2.92316H36.5376C36.9252 2.92316 37.297 3.07714 37.5711 3.35123C37.8452 3.62532 37.9992 3.99707 37.9992 4.38469C37.9992 4.77232 37.8452 5.14406 37.5711 5.41815C37.297 5.69224 36.9252 5.84623 36.5376 5.84623Z" fill="white"/>
<path d="M5.84614 5.84623H1.46154C1.07391 5.84623 0.702165 5.69224 0.428074 5.41815C0.153983 5.14406 0 4.77232 0 4.38469C0 3.99707 0.153983 3.62532 0.428074 3.35123C0.702165 3.07714 1.07391 2.92316 1.46154 2.92316H5.84614C6.23377 2.92316 6.60551 3.07714 6.8796 3.35123C7.15369 3.62532 7.30768 3.99707 7.30768 4.38469C7.30768 4.77232 7.15369 5.14406 6.8796 5.41815C6.60551 5.69224 6.23377 5.84623 5.84614 5.84623Z" fill="white"/>
<path d="M26.3076 17.5385H1.46154C1.07391 17.5385 0.702165 17.3845 0.428074 17.1104C0.153983 16.8364 0 16.4646 0 16.077C0 15.6894 0.153983 15.3176 0.428074 15.0435C0.702165 14.7694 1.07391 14.6154 1.46154 14.6154H26.3076C26.6953 14.6154 27.067 14.7694 27.3411 15.0435C27.6152 15.3176 27.7692 15.6894 27.7692 16.077C27.7692 16.4646 27.6152 16.8364 27.3411 17.1104C27.067 17.3845 26.6953 17.5385 26.3076 17.5385Z" fill="white"/>
<path d="M11.6923 29.2308H1.46154C1.07391 29.2308 0.702165 29.0769 0.428074 28.8028C0.153983 28.5287 0 28.1569 0 27.7693C0 27.3817 0.153983 27.0099 0.428074 26.7358C0.702165 26.4618 1.07391 26.3078 1.46154 26.3078H11.6923C12.0799 26.3078 12.4517 26.4618 12.7257 26.7358C12.9998 27.0099 13.1538 27.3817 13.1538 27.7693C13.1538 28.1569 12.9998 28.5287 12.7257 28.8028C12.4517 29.0769 12.0799 29.2308 11.6923 29.2308Z" fill="white"/>
<path d="M8.76913 8.76927C7.90194 8.76927 7.05422 8.51212 6.33317 8.03033C5.61213 7.54855 5.05014 6.86377 4.71828 6.06258C4.38642 5.2614 4.29959 4.3798 4.46877 3.52927C4.63795 2.67874 5.05555 1.89748 5.66874 1.28428C6.28194 0.671086 7.0632 0.253493 7.91373 0.084312C8.76427 -0.084869 9.64586 0.00196082 10.447 0.333821C11.2482 0.665682 11.933 1.22767 12.4148 1.94871C12.8966 2.66976 13.1537 3.51748 13.1537 4.38467C13.1537 5.54754 12.6918 6.66278 11.8695 7.48505C11.0472 8.30733 9.932 8.76927 8.76913 8.76927ZM8.76913 2.92313C8.48006 2.92313 8.19749 3.00885 7.95714 3.16945C7.71679 3.33004 7.52947 3.5583 7.41885 3.82536C7.30823 4.09242 7.27928 4.38629 7.33568 4.6698C7.39207 4.95331 7.53127 5.21373 7.73567 5.41813C7.94007 5.62253 8.20049 5.76173 8.484 5.81812C8.76751 5.87451 9.06137 5.84557 9.32843 5.73495C9.5955 5.62433 9.82376 5.437 9.98435 5.19665C10.1449 4.95631 10.2307 4.67373 10.2307 4.38467C10.2307 3.99705 10.0767 3.6253 9.80259 3.35121C9.5285 3.07712 9.15675 2.92313 8.76913 2.92313Z" fill="white"/>
<path d="M29.2323 20.4616C28.3651 20.4616 27.5174 20.2044 26.7963 19.7226C26.0753 19.2408 25.5133 18.5561 25.1814 17.7549C24.8496 16.9537 24.7627 16.0721 24.9319 15.2216C25.1011 14.371 25.5187 13.5898 26.1319 12.9766C26.7451 12.3634 27.5263 11.9458 28.3769 11.7766C29.2274 11.6074 30.109 11.6943 30.9102 12.0261C31.7114 12.358 32.3961 12.92 32.8779 13.641C33.3597 14.362 33.6169 15.2098 33.6169 16.077C33.6169 17.2398 33.1549 18.3551 32.3327 19.1773C31.5104 19.9996 30.3951 20.4616 29.2323 20.4616ZM29.2323 14.6154C28.9432 14.6154 28.6606 14.7011 28.4203 14.8617C28.1799 15.0223 27.9926 15.2506 27.882 15.5177C27.7714 15.7847 27.7424 16.0786 27.7988 16.3621C27.8552 16.6456 27.9944 16.906 28.1988 17.1104C28.4032 17.3148 28.6636 17.454 28.9471 17.5104C29.2306 17.5668 29.5245 17.5379 29.7916 17.4272C30.0586 17.3166 30.2869 17.1293 30.4475 16.8889C30.6081 16.6486 30.6938 16.366 30.6938 16.077C30.6938 15.6893 30.5398 15.3176 30.2657 15.0435C29.9916 14.7694 29.6199 14.6154 29.2323 14.6154Z" fill="white"/>
<path d="M14.6146 32.1538C13.7474 32.1538 12.8997 31.8967 12.1786 31.4149C11.4576 30.9331 10.8956 30.2483 10.5637 29.4471C10.2319 28.646 10.1451 27.7644 10.3142 26.9138C10.4834 26.0633 10.901 25.282 11.5142 24.6688C12.1274 24.0556 12.9087 23.638 13.7592 23.4689C14.6097 23.2997 15.4913 23.3865 16.2925 23.7184C17.0937 24.0502 17.7785 24.6122 18.2603 25.3333C18.742 26.0543 18.9992 26.902 18.9992 27.7692C18.9992 28.9321 18.5372 30.0473 17.715 30.8696C16.8927 31.6919 15.7775 32.1538 14.6146 32.1538ZM14.6146 26.3077C14.3255 26.3077 14.043 26.3934 13.8026 26.554C13.5623 26.7146 13.3749 26.9429 13.2643 27.2099C13.1537 27.477 13.1247 27.7708 13.1811 28.0544C13.2375 28.3379 13.3767 28.5983 13.5811 28.8027C13.7855 29.0071 14.0459 29.1463 14.3295 29.2027C14.613 29.2591 14.9068 29.2301 15.1739 29.1195C15.441 29.0089 15.6692 28.8216 15.8298 28.5812C15.9904 28.3409 16.0761 28.0583 16.0761 27.7692C16.0761 27.3816 15.9221 27.0099 15.6481 26.7358C15.374 26.4617 15.0022 26.3077 14.6146 26.3077Z" fill="white"/>
<path d="M36.5385 17.5385H32.1539C31.7663 17.5385 31.3945 17.3845 31.1205 17.1104C30.8464 16.8364 30.6924 16.4646 30.6924 16.077C30.6924 15.6894 30.8464 15.3176 31.1205 15.0435C31.3945 14.7694 31.7663 14.6154 32.1539 14.6154H36.5385C36.9261 14.6154 37.2979 14.7694 37.572 15.0435C37.8461 15.3176 38.0001 15.6894 38.0001 16.077C38.0001 16.4646 37.8461 16.8364 37.572 17.1104C37.2979 17.3845 36.9261 17.5385 36.5385 17.5385Z" fill="white"/>
<path d="M36.5384 29.2308H17.5384C17.1508 29.2308 16.7791 29.0769 16.505 28.8028C16.2309 28.5287 16.0769 28.1569 16.0769 27.7693C16.0769 27.3817 16.2309 27.0099 16.505 26.7358C16.7791 26.4618 17.1508 26.3078 17.5384 26.3078H36.5384C36.926 26.3078 37.2978 26.4618 37.5719 26.7358C37.846 27.0099 37.9999 27.3817 37.9999 27.7693C37.9999 28.1569 37.846 28.5287 37.5719 28.8028C37.2978 29.0769 36.926 29.2308 36.5384 29.2308Z" fill="white"/>
</svg>
