<svg width="35" height="37" viewBox="0 0 35 37" fill="none" xmlns="http://www.w3.org/2000/svg">
<path d="M33.1929 16.4144C32.0085 16.4144 31.2189 17.204 31.2189 18.3884C31.2189 26.0869 25.0996 32.2062 17.4011 32.2062C17.0063 32.2062 16.4141 32.2062 16.0193 32.2062C15.6245 32.2062 15.4271 32.2062 15.0323 32.0088C14.6375 32.0088 14.4401 31.8114 14.0453 31.8114C13.848 31.8114 13.6506 31.614 13.4532 31.614C12.0714 31.2192 10.6896 30.4296 9.50521 29.64C9.30781 29.4427 9.11042 29.4427 9.11042 29.2453C8.91302 29.0479 8.71562 28.8505 8.51822 28.8505C8.12343 28.6531 7.72864 28.2583 7.53124 28.0609C7.33384 27.8635 7.33384 27.8635 7.13644 27.6661L10.6896 27.0739C11.6766 26.8765 12.4662 25.8895 12.2688 24.7051C12.0714 23.7181 11.0844 22.9285 9.90001 23.1259L3.3859 24.3103L1.80672 24.7051C1.21453 24.7051 0.819731 25.0999 0.622334 25.4947C0.424936 25.8895 0.227539 26.4817 0.227539 26.8765L1.80672 35.1672C2.00411 36.1542 2.7937 36.7463 3.78069 36.7463C3.97809 36.7463 3.97809 36.7463 4.17548 36.7463C5.16247 36.549 5.95206 35.562 5.75466 34.3776L5.16247 31.0218C5.55727 31.4166 6.14946 31.8114 6.54425 32.2062C6.54425 32.2062 6.54425 32.2062 6.74165 32.2062C6.93905 32.4036 7.13644 32.601 7.33384 32.601C7.72864 32.9958 8.12343 33.1932 8.71562 33.3906C9.11042 34.1802 9.70261 34.3776 10.2948 34.7724H10.4922C10.6896 34.9698 11.0844 34.9698 11.4792 35.1672C12.2688 35.3646 13.0584 35.562 13.6506 35.7594C14.0454 35.7594 14.4401 35.9568 14.8349 35.9568H15.0323C15.2297 35.9568 15.6245 35.9568 15.8219 35.9568C16.2167 35.9568 16.8089 35.9568 17.2037 35.9568C27.0736 35.9568 34.9695 28.0609 34.9695 18.191C35.1669 17.204 34.1799 16.4144 33.1929 16.4144Z" fill="white"/>
<path d="M1.80681 20.3624C2.99119 20.3624 3.78078 19.5728 3.78078 18.3884C3.78078 10.6899 9.90009 4.57059 17.5986 4.57059C17.9934 4.57059 18.5856 4.57059 18.9804 4.57059C19.3752 4.57059 19.5726 4.57059 19.9674 4.76799C20.3622 4.76799 20.5595 4.96538 20.9543 4.96538C21.1517 4.96538 21.3491 5.16278 21.5465 5.16278C22.9283 5.55758 24.3101 6.14977 25.4945 7.13675C25.6919 7.33415 25.8893 7.33415 26.0867 7.53155C26.2841 7.72895 26.4815 7.72894 26.6789 7.92634C26.8763 8.12374 27.0737 8.51853 27.4685 8.71593C27.6659 8.91333 27.6659 8.91333 27.8633 9.11073L24.3101 9.70292C23.3231 9.90031 22.5335 10.8873 22.7309 12.0717C22.9283 13.0587 23.7179 13.6509 24.7049 13.6509C24.9023 13.6509 24.9023 13.6509 25.0997 13.6509L33.3904 12.0717C34.3774 11.8743 35.1669 10.8873 34.9695 9.70292L33.3904 1.60963C33.193 0.622642 32.206 -0.166947 31.0216 0.0304507C30.0346 0.227848 29.245 1.21483 29.4424 2.39922L30.0346 5.75497C29.6398 5.36018 29.0476 4.76799 28.6528 4.57059C28.6528 4.57059 28.6528 4.57059 28.4554 4.57059C28.258 4.37319 28.0606 4.17579 27.8633 4.17579C27.4685 3.781 27.0737 3.5836 26.4815 3.18881C25.8893 2.79401 25.2971 2.59662 24.7049 2.20182H24.5075C24.3101 2.00442 23.9153 2.00442 23.5205 1.80703C22.7309 1.60963 21.9413 1.41223 21.3491 1.21483C20.9543 1.21483 20.5595 1.01744 20.1648 1.01744H19.9674C19.77 1.01744 19.3752 1.01744 19.1778 1.01744C18.783 1.01744 18.1908 1.01744 17.796 1.01744C7.92612 1.01744 0.0302301 8.91333 0.0302301 18.7832C-0.167167 19.5728 0.622422 20.3624 1.80681 20.3624Z" fill="white"/>
</svg>
