<svg width="41" height="41" viewBox="0 0 41 41" fill="none" xmlns="http://www.w3.org/2000/svg">
<g clip-path="url(#clip0_248_385)">
<path d="M6.00577 6.00139C9.83493 2.17102 15.0253 0.0132114 20.4414 6.04642e-05C25.8575 -0.0130905 31.0583 2.11948 34.906 5.93122V1.38471H37.676V11.0797H27.981V8.30973H33.3733C31.7182 6.55793 29.723 5.16238 27.5098 4.20851C25.2966 3.25464 22.912 2.76254 20.5021 2.76232C10.7231 2.76232 2.76672 10.7187 2.76672 20.4978C2.76672 30.2769 10.7231 38.2332 20.5021 38.2332C30.2811 38.2332 38.2374 30.2769 38.2374 20.4978H41C41.0008 24.5525 39.7991 28.5164 37.5468 31.8881C35.2945 35.2597 32.0929 37.8876 28.3468 39.4394C24.6008 40.9912 20.4787 41.3972 16.502 40.6059C12.5252 39.8146 8.87247 37.8617 6.00577 34.9942C4.10174 33.0907 2.59135 30.8307 1.56087 28.3434C0.530388 25.8561 -2.73688e-07 23.1901 -2.73688e-07 20.4978C-2.73688e-07 17.8054 0.530388 15.1395 1.56087 12.6522C2.59135 10.1648 4.10174 7.90489 6.00577 6.00139Z" fill="white"/>
<path d="M13.5092 15.679C14.0329 15.679 14.5367 15.7668 15.0206 15.9425C15.5078 16.1181 15.942 16.3982 16.3232 16.7827C16.7076 17.1671 17.0109 17.6776 17.233 18.3139C17.4583 18.947 17.5727 19.7242 17.576 20.6456C17.576 21.5107 17.4782 22.2829 17.2827 22.9624C17.0904 23.6385 16.8137 24.2135 16.4524 24.6875C16.0911 25.1615 15.6553 25.5227 15.1449 25.7713C14.6345 26.0166 14.0644 26.1392 13.4347 26.1392C12.7552 26.1392 12.1553 26.0083 11.6349 25.7464C11.1146 25.4813 10.6953 25.1217 10.3771 24.6676C10.0623 24.2102 9.87169 23.6965 9.8054 23.1264H11.9283C12.0111 23.4976 12.1851 23.786 12.4503 23.9915C12.7154 24.1937 13.0436 24.2947 13.4347 24.2947C14.0975 24.2947 14.6013 24.0064 14.946 23.4297C15.2907 22.8497 15.4647 22.0559 15.468 21.0483H15.3984C15.246 21.3466 15.0405 21.6035 14.782 21.8189C14.5234 22.031 14.2268 22.1951 13.892 22.3111C13.5606 22.4271 13.2076 22.4851 12.8331 22.4851C12.2332 22.4851 11.6979 22.3442 11.2273 22.0625C10.7566 21.7808 10.3854 21.393 10.1136 20.8991C9.84186 20.4053 9.70597 19.8419 9.70597 19.2088C9.70265 18.526 9.86009 17.9179 10.1783 17.3842C10.4964 16.8506 10.9406 16.433 11.5107 16.1314C12.084 15.8265 12.7502 15.6757 13.5092 15.679ZM13.5241 17.3693C13.1894 17.3693 12.8911 17.4489 12.6293 17.608C12.3707 17.767 12.1652 17.9808 12.0128 18.2493C11.8636 18.5178 11.7907 18.8177 11.794 19.1491C11.794 19.4839 11.867 19.7855 12.0128 20.054C12.1619 20.3191 12.3641 20.5312 12.6193 20.6903C12.8778 20.8461 13.1728 20.924 13.5043 20.924C13.7528 20.924 13.9832 20.8776 14.1953 20.7848C14.4074 20.692 14.5914 20.5644 14.7472 20.402C14.9063 20.2363 15.0305 20.0457 15.12 19.8303C15.2095 19.6148 15.2543 19.3861 15.2543 19.1442C15.2509 18.8227 15.1747 18.5277 15.0256 18.2592C14.8764 17.9908 14.6709 17.7753 14.4091 17.6129C14.1473 17.4505 13.8523 17.3693 13.5241 17.3693ZM23.0597 26.2237C22.2045 26.2204 21.4688 26.0099 20.8523 25.5923C20.2391 25.1747 19.7668 24.5698 19.4354 23.7777C19.1072 22.9856 18.9448 22.0327 18.9482 20.919C18.9482 19.8087 19.1122 18.8625 19.4403 18.0803C19.7718 17.2981 20.2441 16.7031 20.8572 16.2955C21.4737 15.8845 22.2079 15.679 23.0597 15.679C23.9115 15.679 24.6439 15.8845 25.2571 16.2955C25.8736 16.7064 26.3475 17.303 26.679 18.0852C27.0104 18.8641 27.1745 19.8087 27.1712 20.919C27.1712 22.036 27.0054 22.9905 26.674 23.7827C26.3459 24.5748 25.8752 25.1797 25.2621 25.5973C24.6489 26.0149 23.9148 26.2237 23.0597 26.2237ZM23.0597 24.4389C23.643 24.4389 24.1087 24.1456 24.4567 23.5589C24.8047 22.9723 24.977 22.0923 24.9737 20.919C24.9737 20.1468 24.8942 19.5038 24.7351 18.9901C24.5793 18.4763 24.3572 18.0902 24.0689 17.8317C23.7839 17.5732 23.4474 17.4439 23.0597 17.4439C22.4796 17.4439 22.0156 17.7339 21.6676 18.3139C21.3196 18.8939 21.1439 19.7623 21.1406 20.919C21.1406 21.7012 21.2185 22.3542 21.3743 22.8778C21.5334 23.3982 21.7571 23.7893 22.0455 24.0511C22.3338 24.3097 22.6719 24.4389 23.0597 24.4389ZM31.0975 20.6357C30.6467 20.6357 30.2357 20.5263 29.8645 20.3075C29.4966 20.0855 29.2033 19.7905 28.9846 19.4226C28.7658 19.0514 28.6564 18.6404 28.6564 18.1896C28.6564 17.7422 28.7658 17.3345 28.9846 16.9666C29.2033 16.5954 29.4966 16.3004 29.8645 16.0817C30.2357 15.8596 30.6467 15.7486 31.0975 15.7486C31.5482 15.7486 31.9576 15.8596 32.3255 16.0817C32.6967 16.3004 32.9917 16.5954 33.2104 16.9666C33.4292 17.3345 33.5385 17.7422 33.5385 18.1896C33.5385 18.6404 33.4292 19.0514 33.2104 19.4226C32.9917 19.7905 32.6967 20.0855 32.3255 20.3075C31.9576 20.5263 31.5482 20.6357 31.0975 20.6357ZM31.0975 19.2237C31.2897 19.2237 31.4637 19.1773 31.6195 19.0845C31.7753 18.9917 31.8979 18.8674 31.9874 18.7116C32.0802 18.5559 32.1266 18.3819 32.1266 18.1896C32.1266 18.0007 32.0802 17.8284 31.9874 17.6726C31.8979 17.5168 31.7753 17.3925 31.6195 17.2997C31.4637 17.2069 31.2897 17.1605 31.0975 17.1605C30.9086 17.1605 30.7362 17.2069 30.5804 17.2997C30.4247 17.3925 30.3004 17.5168 30.2076 17.6726C30.1148 17.8284 30.0684 18.0007 30.0684 18.1896C30.0684 18.3819 30.1148 18.5559 30.2076 18.7116C30.3004 18.8674 30.4247 18.9917 30.5804 19.0845C30.7362 19.1773 30.9086 19.2237 31.0975 19.2237Z" fill="white"/>
</g>
<defs>
<clipPath id="clip0_248_385">
<rect width="41" height="41" fill="white"/>
</clipPath>
</defs>
</svg>
