<svg width="36" height="34" viewBox="0 0 36 34" fill="none" xmlns="http://www.w3.org/2000/svg">
<path d="M1.95833 9.79215H8.8125C10.2538 9.79215 11.5405 10.5579 12.4374 11.7524C13.0738 10.5696 13.865 9.4749 14.7697 8.4977C13.1972 6.88599 11.1155 5.87549 8.8125 5.87549H1.95833C0.875375 5.87549 0 6.75282 0 7.83382C0 8.91482 0.875375 9.79215 1.95833 9.79215Z" fill="white"/>
<path d="M17.0081 15.8845C18.0872 12.6396 21.4261 9.79216 24.1541 9.79216H27.7535L25.2214 12.3243C24.4557 13.09 24.4557 14.3277 25.2214 15.0934C25.6033 15.4752 26.1046 15.6672 26.6059 15.6672C27.1073 15.6672 27.6086 15.4752 27.9905 15.0934L35.25 7.83382L27.9905 0.574281C27.2247 -0.191427 25.9871 -0.191427 25.2214 0.574281C24.4557 1.33999 24.4557 2.57766 25.2214 3.34336L27.7535 5.87549H24.1541C19.7008 5.87549 14.9284 9.72753 13.2912 14.6469L12.3669 17.4101C11.1116 21.1818 8.30921 23.5005 6.85417 23.5005H1.95833C0.875375 23.5005 0 24.3778 0 25.4588C0 26.5398 0.875375 27.4172 1.95833 27.4172H6.85417C10.4516 27.4172 14.4192 23.6474 16.0838 18.6458L17.0081 15.8845Z" fill="white"/>
<path d="M25.2214 18.1993C24.4557 18.965 24.4557 20.2027 25.2214 20.9684L27.7535 23.5005H23.175C20.6918 23.5005 18.612 21.7556 17.9051 19.3723C17.4038 20.8411 16.6772 22.3079 15.7705 23.6513C17.5056 25.9269 20.163 27.4172 23.175 27.4172H27.7535L25.2214 29.9493C24.4557 30.715 24.4557 31.9527 25.2214 32.7184C25.6033 33.1002 26.1046 33.2922 26.606 33.2922C27.1073 33.2922 27.6086 33.1002 27.9905 32.7184L35.25 25.4588L27.9905 18.1993C27.2248 17.4336 25.9871 17.4336 25.2214 18.1993Z" fill="white"/>
</svg>
