<svg width="41" height="33" viewBox="0 0 41 33" fill="none" xmlns="http://www.w3.org/2000/svg">
<path d="M14.0056 9.73047C14.7641 9.73047 15.4673 9.83674 16.115 10.0498C16.767 10.2629 17.3446 10.5743 17.8474 10.9834C18.3501 11.3882 18.7597 11.8847 19.075 12.4727C19.3944 13.0606 19.5988 13.7339 19.6882 14.4922H16.8884C16.8373 14.13 16.7326 13.8086 16.575 13.5273C16.4173 13.2419 16.2156 12.9981 15.9685 12.7979C15.7213 12.5976 15.4349 12.4444 15.1111 12.3379C14.7917 12.2315 14.4447 12.1788 14.0701 12.1787C13.3925 12.1787 12.8014 12.3469 12.2986 12.6836C11.796 13.0159 11.4065 13.5017 11.1296 14.1406C10.8527 14.7755 10.7137 15.5466 10.7136 16.4541C10.7136 17.3873 10.8527 18.1717 11.1296 18.8066C11.4109 19.4416 11.8026 19.9213 12.3054 20.2451C12.8082 20.569 13.3901 20.7305 14.0505 20.7305C14.4212 20.7305 14.7645 20.682 15.0798 20.584C15.3993 20.486 15.6823 20.3427 15.9294 20.1553C16.1766 19.9635 16.3818 19.7317 16.5437 19.459C16.7099 19.1863 16.8245 18.8748 16.8884 18.5254L19.6882 18.5381C19.6158 19.1389 19.435 19.7191 19.1453 20.2773C18.8598 20.8313 18.4738 21.3277 17.988 21.7666C17.5066 22.2012 16.9313 22.5461 16.2625 22.8018C15.5977 23.0532 14.8451 23.1787 14.0056 23.1787C12.8382 23.1787 11.7941 22.915 10.8738 22.3867C9.95759 21.8583 9.23262 21.0932 8.69995 20.0918C8.17154 19.0904 7.90796 17.8774 7.90796 16.4541C7.90801 15.027 8.17596 13.8127 8.71265 12.8115C9.24958 11.8101 9.97872 11.0466 10.8992 10.5225C11.8196 9.99411 12.8551 9.73048 14.0056 9.73047Z" fill="white"/>
<path d="M27.5408 9.73047C28.2993 9.73047 29.0024 9.83674 29.6501 10.0498C30.3021 10.2629 30.8797 10.5743 31.3826 10.9834C31.8853 11.3882 32.2948 11.8847 32.6101 12.4727C32.9296 13.0606 33.1339 13.7339 33.2234 14.4922H30.4236C30.3725 14.13 30.2677 13.8086 30.1101 13.5273C29.9525 13.2419 29.7508 12.9981 29.5037 12.7979C29.2565 12.5976 28.9701 12.4444 28.6462 12.3379C28.3269 12.2315 27.9799 12.1788 27.6052 12.1787C26.9277 12.1787 26.3366 12.3469 25.8337 12.6836C25.3312 13.0159 24.9417 13.5017 24.6648 14.1406C24.3879 14.7755 24.2488 15.5466 24.2488 16.4541C24.2488 17.3873 24.3878 18.1717 24.6648 18.8066C24.946 19.4416 25.3377 19.9213 25.8406 20.2451C26.3434 20.569 26.9252 20.7305 27.5857 20.7305C27.9564 20.7305 28.2997 20.682 28.615 20.584C28.9345 20.486 29.2175 20.3427 29.4646 20.1553C29.7118 19.9635 29.9169 19.7317 30.0789 19.459C30.245 19.1863 30.3597 18.8748 30.4236 18.5254L33.2234 18.5381C33.1509 19.1389 32.9702 19.7191 32.6804 20.2773C32.3949 20.8313 32.009 21.3277 31.5232 21.7666C31.0418 22.2012 30.4665 22.5461 29.7976 22.8018C29.1328 23.0532 28.3803 23.1787 27.5408 23.1787C26.3733 23.1787 25.3293 22.915 24.4089 22.3867C23.4927 21.8583 22.7678 21.0932 22.2351 20.0918C21.7067 19.0904 21.4431 17.8774 21.4431 16.4541C21.4432 15.027 21.7111 13.8127 22.2478 12.8115C22.7847 11.8101 23.5139 11.0466 24.4343 10.5225C25.3547 9.99411 26.3903 9.73048 27.5408 9.73047Z" fill="white"/>
<path fill-rule="evenodd" clip-rule="evenodd" d="M30.9998 0C36.5226 0 40.9998 4.47715 40.9998 10V23L40.9871 23.5146C40.7192 28.7983 36.35 33 30.9998 33H10.2C4.8497 33 0.480495 28.7983 0.212646 23.5146L0.199951 23V10C0.199951 4.64975 4.40162 0.280543 9.6853 0.0126953L10.2 0H30.9998ZM10.2 3C6.33396 3 3.19995 6.13401 3.19995 10V23C3.19995 26.866 6.33396 30 10.2 30H30.9998C34.8657 30 37.9998 26.866 37.9998 23V10C37.9998 6.25478 35.0588 3.19621 31.3601 3.00879L30.9998 3H10.2Z" fill="white"/>
</svg>
