<svg width="58" height="48" viewBox="0 0 58 48" fill="none" xmlns="http://www.w3.org/2000/svg">
<path d="M40.529 33.6788C40.529 33.6788 45.0175 30.3893 45.2668 23.4307C45.5162 16.472 40.529 12.4234 40.529 12.4234M45.2668 43.674C45.2668 43.674 54.6601 38.7397 54.992 24.3163C55.3238 9.89294 45.2668 2.04866 45.2668 2.04866M15.9924 32.329L25.77 43.8011C27.5793 45.9241 31.0532 44.6445 31.0532 41.8551V5.68738C31.0532 2.95458 27.6973 1.64492 25.8462 3.65535L15.9853 14.3654C15.4172 14.9823 14.6169 15.3333 13.7783 15.3333H6C4.34315 15.3333 3 16.6765 3 18.3333V28.2749C3 29.9318 4.34315 31.2749 6 31.2749H13.7091C14.5879 31.2749 15.4224 31.6602 15.9924 32.329Z" stroke="#353535" stroke-width="5"/>
</svg>
