<svg width="41" height="38" viewBox="0 0 41 38" fill="none" xmlns="http://www.w3.org/2000/svg">
<path d="M7.41028 5.94647V0H3.67036V5.94647C2.59365 6.34319 1.66449 7.06054 1.00818 8.0018C0.351879 8.94305 0 10.0629 0 11.2104C0 12.3579 0.351879 13.4778 1.00818 14.419C1.66449 15.3603 2.59365 16.0776 3.67036 16.4743V37.3992H7.41028V16.493C8.49327 16.1 9.42897 15.383 10.0902 14.4395C10.7515 13.4961 11.1062 12.3719 11.1062 11.2198C11.1062 10.0676 10.7515 8.94345 10.0902 7.99999C9.42897 7.05653 8.49327 6.33954 7.41028 5.94647Z" fill="black"/>
<path d="M22.37 20.9061V0H18.6301V20.9061C17.5534 21.3029 16.6242 22.0202 15.9679 22.9615C15.3116 23.9027 14.9597 25.0226 14.9597 26.1701C14.9597 27.3175 15.3116 28.4374 15.9679 29.3787C16.6242 30.3199 17.5534 31.0373 18.6301 31.434V37.3992H22.37V31.4527C23.4467 31.056 24.3759 30.3386 25.0322 29.3974C25.6885 28.4561 26.0404 27.3362 26.0404 26.1888C26.0404 25.0413 25.6885 23.9214 25.0322 22.9802C24.3759 22.0389 23.4467 21.3216 22.37 20.9248V20.9061Z" fill="black"/>
<path d="M37.3297 9.68639V0H33.5898V9.68639C32.5131 10.0831 31.5839 10.8005 30.9276 11.7417C30.2713 12.683 29.9194 13.8028 29.9194 14.9503C29.9194 16.0978 30.2713 17.2177 30.9276 18.1589C31.5839 19.1002 32.5131 19.8175 33.5898 20.2143V37.3992H37.3297V20.233C38.4064 19.8362 39.3356 19.1189 39.9919 18.1776C40.6482 17.2364 41.0001 16.1165 41.0001 14.969C41.0001 13.8215 40.6482 12.7017 39.9919 11.7604C39.3356 10.8192 38.4064 10.1018 37.3297 9.70508V9.68639Z" fill="black"/>
</svg>
