<svg width="64" height="64" viewBox="0 0 64 64" fill="none" xmlns="http://www.w3.org/2000/svg">
<path d="M61.3699 17.1C61.5557 16.9142 61.7031 16.6936 61.8037 16.4508C61.9042 16.208 61.956 15.9478 61.956 15.685C61.956 15.4222 61.9042 15.162 61.8037 14.9192C61.7031 14.6764 61.5557 14.4558 61.3699 14.27C61.1841 14.0842 60.9635 13.9368 60.7207 13.8362C60.4779 13.7356 60.2177 13.6839 59.9549 13.6839C59.6921 13.6839 59.4319 13.7356 59.1891 13.8362C58.9463 13.9368 58.7257 14.0842 58.5399 14.27L53.8499 19C50.4773 16.2224 46.3498 14.5192 41.9999 14.11V10H45.9999C46.5303 10 47.039 9.78929 47.4141 9.41421C47.7892 9.03914 47.9999 8.53043 47.9999 8C47.9999 7.46957 47.7892 6.96086 47.4141 6.58579C47.039 6.21071 46.5303 6 45.9999 6H33.9999C33.4695 6 32.9607 6.21071 32.5857 6.58579C32.2106 6.96086 31.9999 7.46957 31.9999 8C31.9999 8.53043 32.2106 9.03914 32.5857 9.41421C32.9607 9.78929 33.4695 10 33.9999 10H37.9999V14.12C10.2999 17.56 11.9999 57 39.9999 58C58.6699 58.08 68.8499 35.74 56.7399 21.76L61.3699 17.1ZM39.9999 54C35.226 54 30.6476 52.1036 27.272 48.7279C23.8963 45.3523 21.9999 40.7739 21.9999 36C22.9999 12.11 56.9999 12.13 57.9999 36C57.9999 40.7739 56.1035 45.3523 52.7278 48.7279C49.3521 52.1036 44.7738 54 39.9999 54Z" fill="white"/>
<path d="M42 31.15V23.22C42 22.6895 41.7893 22.1808 41.4142 21.8058C41.0392 21.4307 40.5304 21.22 40 21.22C39.4696 21.22 38.9609 21.4307 38.5858 21.8058C38.2107 22.1808 38 22.6895 38 23.22V31.72C37.9988 32.0944 38.1028 32.4617 38.3 32.78L46.22 45.46C46.5086 45.893 46.9546 46.1964 47.4634 46.3059C47.9721 46.4154 48.5035 46.3223 48.9447 46.0464C49.3859 45.7705 49.7021 45.3335 49.8264 44.8282C49.9506 44.3229 49.873 43.789 49.61 43.34L42 31.15Z" fill="white"/>
<path d="M4 18H20C20.5304 18 21.0391 17.7893 21.4142 17.4142C21.7893 17.0391 22 16.5304 22 16C22 15.4696 21.7893 14.9609 21.4142 14.5858C21.0391 14.2107 20.5304 14 20 14H4C3.46957 14 2.96086 14.2107 2.58579 14.5858C2.21071 14.9609 2 15.4696 2 16C2 16.5304 2.21071 17.0391 2.58579 17.4142C2.96086 17.7893 3.46957 18 4 18Z" fill="white"/>
<path d="M4 28H13.9C14.4304 28 14.9391 27.7893 15.3142 27.4142C15.6893 27.0391 15.9 26.5304 15.9 26C15.9 25.4696 15.6893 24.9609 15.3142 24.5858C14.9391 24.2107 14.4304 24 13.9 24H4C3.46957 24 2.96086 24.2107 2.58579 24.5858C2.21071 24.9609 2 25.4696 2 26C2 26.5304 2.21071 27.0391 2.58579 27.4142C2.96086 27.7893 3.46957 28 4 28Z" fill="white"/>
<path d="M4 38H12.31C12.8404 38 13.3491 37.7893 13.7242 37.4142C14.0993 37.0391 14.31 36.5304 14.31 36C14.31 35.4696 14.0993 34.9609 13.7242 34.5858C13.3491 34.2107 12.8404 34 12.31 34H4C3.46957 34 2.96086 34.2107 2.58579 34.5858C2.21071 34.9609 2 35.4696 2 36C2 36.5304 2.21071 37.0391 2.58579 37.4142C2.96086 37.7893 3.46957 38 4 38Z" fill="white"/>
<path d="M4 48H13.9C14.4304 48 14.9391 47.7893 15.3142 47.4142C15.6893 47.0391 15.9 46.5304 15.9 46C15.9 45.4696 15.6893 44.9609 15.3142 44.5858C14.9391 44.2107 14.4304 44 13.9 44H4C3.46957 44 2.96086 44.2107 2.58579 44.5858C2.21071 44.9609 2 45.4696 2 46C2 46.5304 2.21071 47.0391 2.58579 47.4142C2.96086 47.7893 3.46957 48 4 48Z" fill="white"/>
<path d="M20 54H4C3.46957 54 2.96086 54.2107 2.58579 54.5858C2.21071 54.9609 2 55.4696 2 56C2 56.5304 2.21071 57.0391 2.58579 57.4142C2.96086 57.7893 3.46957 58 4 58H20C20.5304 58 21.0391 57.7893 21.4142 57.4142C21.7893 57.0391 22 56.5304 22 56C22 55.4696 21.7893 54.9609 21.4142 54.5858C21.0391 54.2107 20.5304 54 20 54Z" fill="white"/>
</svg>
